<svg width="137" height="63" viewBox="0 0 137 63" fill="none" xmlns="http://www.w3.org/2000/svg">
<path d="M51.744 36.912L49.656 39H41.376V26.544L43.464 24.504H41.088V22.416H47.88L49.968 24.504V27.456L48.504 28.92H49.968L51.744 30.696V36.912ZM47.592 28.92V24.504H43.752V30.696L45.504 28.92H47.592ZM49.368 36.912V30.696H43.752V36.912H49.368ZM57.8312 24.504H55.4552V22.128H57.8312V24.504ZM57.8312 39H55.4552V28.368L57.8312 25.968V39ZM70.8988 26.544L68.8348 28.632H63.7948V36.912H67.6348V30.696H70.0108V43.152L67.9468 45.216H61.1308L63.1708 43.152H67.6348V37.176L65.2588 39H63.5068L61.4188 36.912V28.632L63.5068 26.544H70.8988ZM75.9718 24.504H73.5958V22.128H75.9718V24.504ZM75.9718 39H73.5958V28.368L75.9718 25.968V39ZM88.6794 39H86.3274V28.632H82.4874V39H80.1114V26.544H82.4874V28.344L84.2394 26.544H86.6154L88.6794 28.632V39ZM98.7694 26.544L96.6814 28.632H95.1934V36.912H98.1454V39H94.9054L92.8174 36.912V28.632H89.8654L91.9534 26.544H92.8174V24.792L95.1934 22.416V26.544H98.7694ZM111.205 36.912L109.117 39H100.837V26.544L102.925 24.504H100.549V22.416H107.341L109.429 24.504V27.456L107.965 28.92H109.429L111.205 30.696V36.912ZM107.053 28.92V24.504H103.213V30.696L104.965 28.92H107.053ZM108.829 36.912V30.696H103.213V36.912H108.829ZM125.572 36.912L123.484 39H115.204V26.544L117.292 24.504H114.916V22.416H123.484L125.572 24.504V36.912ZM123.196 36.912V24.504H117.58V38.712L119.332 36.912H123.196Z" fill="white"/>
<path d="M6.6492 23.1047L9.22392 24.3921C9.69786 24.5991 10.2136 24.6924 10.7299 24.6644C11.2463 24.6365 11.7489 24.4881 12.1977 24.2312L14.6309 22.6477C15.0495 22.3438 15.3903 21.9451 15.6252 21.4841C15.8602 21.0232 15.9827 20.5131 15.9825 19.9958L15.8281 17.0928C15.7717 16.5796 15.5956 16.0867 15.3139 15.654C15.0321 15.2213 14.6526 14.8609 14.206 14.6017L11.6313 13.2822C11.1583 13.0727 10.6426 12.9776 10.126 13.0044C9.60935 13.0313 9.10625 13.1793 8.65748 13.4367L6.22444 15.0201C5.8065 15.3248 5.46625 15.7237 5.23144 16.1845C4.99656 16.6452 4.87362 17.1549 4.87265 17.6721L5.02713 20.5751C5.07715 21.0953 5.25036 21.5961 5.53242 22.036C5.81448 22.4759 6.19734 22.8423 6.6492 23.1047Z" fill="white"/>
<path d="M22.1811 26.8639L19.6064 25.5443C19.1336 25.3374 18.6189 25.2442 18.1036 25.2721C17.5883 25.3001 17.0867 25.4484 16.639 25.7052L14.1802 27.2887C13.7638 27.5948 13.4246 27.994 13.19 28.4545C12.9553 28.9149 12.8314 29.4238 12.8285 29.9407L12.983 32.8436C13.0393 33.3569 13.2154 33.8498 13.4972 34.2825C13.779 34.7151 14.1584 35.0756 14.605 35.3347L17.1797 36.622C17.6517 36.8314 18.1663 36.9266 18.6819 36.8998C19.1975 36.8729 19.6995 36.7248 20.1471 36.4676L22.5866 34.8841C23.0032 34.5767 23.3423 34.1763 23.5769 33.7148C23.8116 33.2533 23.9354 32.7434 23.9384 32.2257L23.7839 29.3292C23.7248 28.8225 23.5494 28.3363 23.2714 27.9087C22.9934 27.481 22.6202 27.1235 22.1811 26.8639Z" fill="white"/>
<path d="M30.1242 39.1067L27.5494 37.8194C27.0764 37.6098 26.5608 37.5147 26.0441 37.5415C25.5275 37.5684 25.0244 37.7164 24.5757 37.9738L22.1426 39.5573C21.7254 39.8626 21.3857 40.2617 21.151 40.7223C20.9161 41.1829 20.7928 41.6922 20.7908 42.2093L20.9454 45.1122C21.007 45.6172 21.1842 46.1012 21.4633 46.5265C21.7424 46.9518 22.1158 47.3071 22.5546 47.5647L25.1293 48.852C25.6032 49.059 26.1189 49.1522 26.6352 49.1243C27.1516 49.0964 27.6542 48.948 28.1031 48.6911L30.5426 47.1076C30.9593 46.8023 31.2983 46.4031 31.532 45.9423C31.7657 45.4816 31.8876 44.9723 31.8879 44.4557L31.7527 41.6042C31.6971 41.0891 31.5207 40.5943 31.2377 40.1603C30.9547 39.7263 30.5731 39.3653 30.1242 39.1067Z" fill="white"/>
<path d="M11.155 31.8974L11.0327 29.638C11.0356 29.1212 11.1594 28.6123 11.3941 28.1519C11.6288 27.6914 11.9679 27.2922 12.3844 26.9861L17.1283 23.9029C17.5759 23.646 18.0775 23.4977 18.5929 23.4697C19.1082 23.4418 19.6229 23.5351 20.0957 23.742L22.1168 24.7718C22.5898 24.9813 23.1055 25.0765 23.6221 25.0497C24.1388 25.0228 24.6418 24.8747 25.0906 24.6174L27.5237 23.0275C27.9413 22.7225 28.2812 22.3235 28.516 21.8628C28.7508 21.4021 28.8739 20.8926 28.8754 20.3755L28.7209 17.479C28.6656 16.9646 28.4899 16.4704 28.2081 16.0366C27.9263 15.6027 27.5463 15.2413 27.0989 14.9815L24.5242 13.6619C24.0503 13.455 23.5346 13.3617 23.0181 13.3897C22.5018 13.4176 21.9991 13.566 21.5504 13.8229L19.0658 15.3806C18.649 15.6859 18.31 16.0851 18.0763 16.5459C17.8426 17.0066 17.7207 17.5159 17.7205 18.0325L17.8363 20.2918C17.8361 20.8085 17.7142 21.3178 17.4804 21.7785C17.2467 22.2393 16.9078 22.6385 16.491 22.9438L11.7471 26.027C11.2984 26.2844 10.7953 26.4325 10.2787 26.4593C9.76203 26.4861 9.24638 26.3909 8.77334 26.1815L6.75863 25.158C6.28559 24.9486 5.76994 24.8535 5.25326 24.8803C4.73664 24.9071 4.2336 25.0552 3.78483 25.3125L1.35172 26.896C0.933784 27.2006 0.593601 27.5995 0.358723 28.0603C0.123844 28.5211 0.000965518 29.0308 0 29.5479L0.154482 32.4509C0.209323 32.9655 0.384854 33.4598 0.666657 33.8938C0.948524 34.3278 1.32874 34.6891 1.77655 34.9484L4.35127 36.2358C4.82514 36.4428 5.34086 36.536 5.85722 36.5081C6.37358 36.4802 6.87629 36.3318 7.32506 36.0748L9.75817 34.4914C10.1763 34.197 10.5201 33.8094 10.7626 33.3592C11.005 32.909 11.1393 32.4085 11.155 31.8974Z" fill="white"/>
<path d="M36.6382 29.7219C36.5809 29.208 36.4044 28.7147 36.1228 28.2811C35.8412 27.8475 35.4622 27.4857 35.0162 27.2244L32.4415 25.937C31.9675 25.7305 31.4517 25.6375 30.9355 25.6655C30.4192 25.6934 29.9166 25.8415 29.4677 26.098L27.0345 27.6814C26.6173 27.9868 26.2777 28.3858 26.0429 28.8464C25.8082 29.307 25.6848 29.8164 25.6828 30.3334L25.8051 32.5991C25.8031 33.116 25.6798 33.6254 25.445 34.086C25.2103 34.5466 24.8706 34.9457 24.4533 35.2511L19.7159 38.3278C19.2671 38.5847 18.7645 38.7331 18.2481 38.761C17.7317 38.789 17.216 38.6957 16.7421 38.4888L14.7209 37.4589C14.2481 37.2519 13.7335 37.1587 13.2181 37.1866C12.7028 37.2146 12.2012 37.3629 11.7536 37.6198L9.29471 39.1968C8.87832 39.5029 8.53923 39.902 8.30448 40.3625C8.06979 40.8229 7.94602 41.3319 7.94305 41.8488L8.09747 44.7517C8.15386 45.265 8.32997 45.7578 8.61171 46.1905C8.89351 46.6232 9.27296 46.9837 9.71961 47.2428L12.2943 48.5623C12.7662 48.7717 13.2808 48.8669 13.7964 48.84C14.3121 48.8132 14.814 48.6651 15.2617 48.4078L17.7012 46.8243C18.1172 46.518 18.4561 46.1187 18.6907 45.6583C18.9254 45.1979 19.0494 44.6891 19.0529 44.1725L18.9306 41.9066C18.9321 41.3896 19.0552 40.8801 19.29 40.4194C19.5248 39.9587 19.8648 39.5597 20.2823 39.2547L25.0198 36.1715C25.4686 35.9142 25.9717 35.7661 26.4883 35.7392C27.0049 35.7124 27.5205 35.8075 27.9936 36.017L30.0083 37.0405C30.4813 37.2499 30.9971 37.3451 31.5137 37.3182C32.0303 37.2914 32.5333 37.1433 32.9821 36.886L35.4217 35.3026C35.838 34.9968 36.1767 34.5975 36.4104 34.1369C36.6441 33.6762 36.7662 33.1671 36.7669 32.6506L36.6382 29.7219Z" fill="white"/>
</svg>
