<svg width="138" height="212" viewBox="0 0 138 212" fill="none" xmlns="http://www.w3.org/2000/svg">
<path d="M34.5 212C53.5356 212 69 196.179 69 176.666V141.333H34.5C15.4644 141.333 0 157.154 0 176.666C0 196.179 15.4644 212 34.5 212Z" fill="#0ACF83"/>
<path d="M0 106C0 86.5049 15.4644 70.667 34.5 70.667H69V141.334H34.5C15.4644 141.334 0 125.513 0 106Z" fill="#A259FF"/>
<path d="M0 35.3333C0 15.8379 15.4644 0 34.5 0H69V70.6667H34.5C15.4644 70.6667 0 54.846 0 35.3333Z" fill="#F24E1E"/>
<path d="M69 0H103.5C122.536 0 138 15.8379 138 35.3333C138 54.846 122.552 70.6667 103.5 70.6667H69V0Z" fill="#FF7262"/>
<path d="M138 106C138 125.513 122.552 141.334 103.5 141.334C84.4475 141.334 69 125.513 69 106C69 86.5049 84.4475 70.667 103.5 70.667C122.552 70.667 138 86.5049 138 106Z" fill="#1ABCFE"/>
</svg>
