<svg width="230" height="230" viewBox="0 0 230 230" fill="none" xmlns="http://www.w3.org/2000/svg">
<path d="M0 0H230V230H0V0Z" fill="#F7DF1E"/>
<path d="M60.4755 192.204L78.0759 181.552C81.472 187.573 84.5608 192.667 91.9702 192.667C99.0724 192.667 103.551 189.889 103.551 179.083V105.592H125.165V179.388C125.165 201.774 112.042 211.965 92.8965 211.965C75.6061 211.965 65.5696 203.01 60.4746 192.202L60.4755 192.204ZM136.905 189.888L154.503 179.699C159.137 187.265 165.158 192.822 175.81 192.822C184.766 192.822 190.477 188.345 190.477 182.169C190.477 174.758 184.61 172.133 174.729 167.812L169.327 165.494C153.732 158.857 143.389 150.519 143.389 132.919C143.389 116.708 155.74 104.356 175.039 104.356C188.78 104.356 198.661 109.143 205.762 121.648L188.932 132.456C185.226 125.818 181.214 123.193 175.038 123.193C168.708 123.193 164.693 127.208 164.693 132.456C164.693 138.94 168.708 141.567 177.97 145.581L183.374 147.896C201.747 155.771 212.09 163.798 212.09 181.861C212.09 201.315 196.806 211.967 176.272 211.967C156.202 211.967 143.233 202.395 136.904 189.889" fill="black"/>
</svg>
